<svg height="480pt" viewBox="0 0 480 480" width="480pt" xmlns="http://www.w3.org/2000/svg"><path d="m448 0h-416c-17.664062.0195312-31.9804688 14.335938-32 32v352c.0195312 17.664062 14.335938 31.980469 32 32h136v16h-32c-22.082031.027344-39.972656 17.917969-40 40v8h288v-8c-.027344-22.082031-17.917969-39.972656-40-40h-32v-16h136c17.664062-.019531 31.980469-14.335938 32-32v-352c-.019531-17.664062-14.335938-31.9804688-32-32zm-416 16h416c8.832031.011719 15.988281 7.167969 16 16h-448c.011719-8.832031 7.167969-15.988281 16-16zm312 432c10.167969.011719 19.226562 6.417969 22.628906 16h-253.257812c3.402344-9.582031 12.460937-15.988281 22.628906-16zm-48-16h-112v-16h112zm168-48c-.011719 8.832031-7.167969 15.988281-16 16h-416c-8.832031-.011719-15.988281-7.167969-16-16v-32h448zm-320.246094-236.921875c-1.285156-.542969-2.523437-1.191406-3.703125-1.9375-10.628906-6.855469-24.28125-6.855469-34.910156 0-5.550781 3.8125-12.871094 3.8125-18.421875 0-5.160156-3.445313-11.242188-5.238281-17.445312-5.140625-6.199219-.097656-12.285157 1.695312-17.441407 5.140625-1.109375.691406-2.257812 1.308594-3.449219 1.847656-.105468.046875-.207031.105469-.3125.144531-1.238281-16.460937 19.421876-35.371093 34.742188-49.398437 5.078125-4.648437 9.589844-8.773437 13.1875-12.601563 3.597656 3.828126 8.109375 7.953126 13.1875 12.601563 15.328125 14.027344 35.996094 32.953125 34.742188 49.425781zm-90.695312 15.234375c.941406-.339844 1.863281-.734375 2.757812-1.179688.378906-.179687.820313-.335937 1.171875-.519531 1.140625-.59375 2.15625-1.199219 3.078125-1.753906 2.664063-1.953125 5.90625-2.957031 9.207032-2.859375 3.304687-.101562 6.546874.90625 9.210937 2.859375 10.621094 6.855469 24.269531 6.855469 34.890625 0 5.558594-3.8125 12.894531-3.8125 18.453125 0 .925781.554687 1.949219 1.160156 3.09375 1.757813.359375.1875.808594.347656 1.199219.53125.898437.441406 1.820312.832031 2.757812 1.171874.121094.042969.207032.097657.328125.140626-5.039062 11.425781-12.648437 21.535156-22.234375 29.539062h-41.96875c-9.625-7.976562-17.238281-18.101562-22.234375-29.5625.109375-.035156.183594-.085938.289063-.125zm25.71875 45.6875h34.445312l8 48h-25.222656c-4.417969 0-8 3.582031-8 8s3.582031 8 8 8h27.886719l2.667969 16h-61.109376zm-14.777344 96h64v32h-64zm368-96h-32v16h32v16h-16v16h16v16h-32v16h32v16h-16v16h16v16h-56v-32c0-3.398438-2.148438-6.421875-5.351562-7.546875-3.203126-1.125-6.769532-.105469-8.894532 2.546875l-29.601562 37h-51.90625l146.875-190.9375c.757812-.816406 1.921875-1.113281 2.976562-.753906 1.054688.355468 1.800782 1.300781 1.902344 2.410156zm-72 128h-7.355469l7.355469-9.195312zm-136-67.789062c5.089844 2.125 10.496094 3.40625 16 3.789062 5.503906-.382812 10.910156-1.664062 16-3.789062v67.789062h-32zm-33.632812-52.210938h51.265624l12.417969 35.738281c-4.445312 2.109375-9.183593 3.546875-14.050781 4.261719-7.132812-1.335938-14.019531-3.746094-20.425781-7.15625-.195313-.097656-.410157-.132812-.613281-.210938-.605469-.273437-1.253907-.445312-1.917969-.507812-1.023438-.121094-2.058594-.0625-3.058594.175781-.300781.085938-.597656.1875-.886719.308594-.222656.085937-.460937.125-.675781.234375-6.402344 3.414062-13.289063 5.828125-20.421875 7.15625-4.867188-.71875-9.601562-2.15625-14.046875-4.265625zm5.554687-16 15.847656-45.617188c.960938-1.386718 2.542969-2.214843 4.230469-2.214843s3.269531.828125 4.230469 2.214843l15.847656 45.617188zm-19.921875 68.210938c5.089844 2.125 10.496094 3.40625 16 3.789062 5.503906-.382812 10.910156-1.664062 16-3.789062v67.789062h-32zm288 67.789062h-16v-189.28125c0-8.015625-5.105469-15.144531-12.695312-17.722656-7.589844-2.582032-15.980469-.039063-20.863282 6.316406l-142.441406 185.167969v-64.480469c-.011719-.804688-.144531-1.601562-.398438-2.367188-.027343-.085937-.015624-.175781-.042968-.257812l-16.675782-48-19.746093-56.84375c-.113281-.324219-.25-.644531-.402344-.953125-3.546875-7.097656-10.800781-11.578125-18.734375-11.578125s-15.1875 4.480469-18.734375 11.578125c-.152344.308594-.289063.628906-.402344.953125l-19.746093 56.84375-16.675782 48c-.027344.082031-.015625.171875-.042968.257812-.253907.765626-.386719 1.5625-.398438 2.367188v80h-16v-40c0-.246094-.117188-.457031-.140625-.699219-.019531-.207031.066406-.40625.03125-.613281l-15.261719-91.566406c13.765625-11.90625 23.871094-27.472656 29.144532-44.894532.023437-.070312.019531-.144531.039062-.214843.019531-.0625.0625-.113281.082031-.175781.386719-1.289063.773438-2.578126 1.101563-3.921876 6.496094-26.335937-19.800782-50.40625-39.003906-67.976562-6.296876-5.117188-11.945313-10.988281-16.816407-17.476562-1.496093-2.542969-4.226562-4.101563-7.175781-4.101563s-5.679688 1.558594-7.175781 4.101563c-4.871094 6.488281-10.519531 12.359374-16.816407 17.476562-19.203124 17.570312-45.5 41.640625-39.003906 67.984375.304688 1.242187.65625 2.429687 1.214844 4.296875l.007812.015625c5.277344 17.417969 15.382813 32.980469 29.144532 44.886719l-15.261719 91.566406c-.035156.207031.050781.40625.03125.613281-.023437.242188-.140625.453125-.140625.699219v40h-32v-288h448zm0 0"/><path d="m192 368h16v16h-16zm0 0"/><path d="m224 368h32v16h-32zm0 0"/><path d="m272 368h16v16h-16zm0 0"/><path d="m424 112h16v-48h-96v16h80zm0 0"/><path d="m312 64h16v16h-16zm0 0"/></svg>